<svg width="26" height="25" viewBox="0 0 26 25" fill="none" xmlns="http://www.w3.org/2000/svg">
<path d="M20.5 20C21.163 20 21.7989 20.2634 22.2678 20.7322C22.7366 21.2011 23 21.837 23 22.5C23 23.163 22.7366 23.7989 22.2678 24.2678C21.7989 24.7366 21.163 25 20.5 25C19.837 25 19.2011 24.7366 18.7322 24.2678C18.2634 23.7989 18 23.163 18 22.5C18 21.1125 19.1125 20 20.5 20ZM0.5 0H4.5875L5.7625 2.5H24.25C24.5815 2.5 24.8995 2.6317 25.1339 2.86612C25.3683 3.10054 25.5 3.41848 25.5 3.75C25.5 3.9625 25.4375 4.175 25.35 4.375L20.875 12.4625C20.45 13.225 19.625 13.75 18.6875 13.75H9.375L8.25 15.7875L8.2125 15.9375C8.2125 16.0204 8.24542 16.0999 8.30403 16.1585C8.36263 16.2171 8.44212 16.25 8.525 16.25H23V18.75H8C7.33696 18.75 6.70107 18.4866 6.23223 18.0178C5.76339 17.5489 5.5 16.913 5.5 16.25C5.5 15.8125 5.6125 15.4 5.8 15.05L7.5 11.9875L3 2.5H0.5V0ZM8 20C8.66304 20 9.29893 20.2634 9.76777 20.7322C10.2366 21.2011 10.5 21.837 10.5 22.5C10.5 23.163 10.2366 23.7989 9.76777 24.2678C9.29893 24.7366 8.66304 25 8 25C7.33696 25 6.70107 24.7366 6.23223 24.2678C5.76339 23.7989 5.5 23.163 5.5 22.5C5.5 21.1125 6.6125 20 8 20ZM19.25 11.25L22.725 5H6.925L9.875 11.25H19.25Z" fill="white"/>
</svg>
