<svg width="23" height="22" viewBox="0 0 23 22" fill="none" xmlns="http://www.w3.org/2000/svg">
<path fill-rule="evenodd" clip-rule="evenodd" d="M14.6316 4.07516C17.3653 6.80883 17.3653 11.241 14.6316 13.9747C11.898 16.7083 7.46581 16.7083 4.73214 13.9747C1.99847 11.241 1.99847 6.80883 4.73214 4.07516C7.46581 1.34148 11.898 1.34149 14.6316 4.07516ZM16.3902 15.0251C19.5566 11.4914 19.4418 6.05686 16.0458 2.66094C12.5311 -0.853777 6.83264 -0.853777 3.31792 2.66094C-0.196795 6.17566 -0.196795 11.8741 3.31792 15.3889C6.61488 18.6858 11.8334 18.8901 15.3684 16.0017C15.3624 16.2653 15.4599 16.5308 15.6611 16.732L20.6108 21.6818C21.0013 22.0723 21.6345 22.0723 22.025 21.6818C22.4156 21.2912 22.4156 20.6581 22.025 20.2675L17.0753 15.3178C16.8856 15.1281 16.6387 15.0306 16.3902 15.0251Z" fill="white"/>
</svg>
